# xmcd
#
# Track frame offsets:
#	151
#	13236
#	27247
#	41566
#	54935
#	65741
#	78794
#	95837
#	111899
#	131855
#	146043
#	161814
#	174151
#	191732
#
# Disc length: 4032 seconds
#
# Revision: 1
# Processed by: cddbd v1.5.2PL0 Copyright (c) Steve Scherf et al.
# Submitted via: audiograbber 1.83.01
#
DISCID=c50fbe0e
DTITLE=Circuit Rider - CR Volume 23 Circuit Rider
DYEAR=1999
DGENRE=Gospel
TTITLE0=It Is No Secret - Harvey Perdue
TTITLE1=What I´ve Aredy Done For You - Marvin Morrow
TTITLE2=Trowin´ Dirt - Bruce Trent
TTITLE3=By The Signs - The Ponyers
TTITLE4=I´m Holding On To Jesus - Harlon Burton
TTITLE5=Hallelujah - George Barnes
TTITLE6=Come Over To The Other Side - Debbie Helton
TTITLE7=I´d A Wake A Millionaire - Billy Ray Singleton
TTITLE8=Sally - Leslie Baker
TTITLE9=Safe In The Arms - Devonna Edwards
TTITLE10=Jesus I Love You - Southern Cross
TTITLE11=Just Say No - David Johnson
TTITLE12=This Side Of Calvary - Shirley Berry
TTITLE13=Testimony - Shirley Berry
EXTD=
EXTT0=
EXTT1=
EXTT2=
EXTT3=
EXTT4=
EXTT5=
EXTT6=
EXTT7=
EXTT8=
EXTT9=
EXTT10=
EXTT11=
EXTT12=
EXTT13=
PLAYORDER=
